<?xml version="1.0" standalone="no"?>
<!DOCTYPE svg PUBLIC "-//W3C//DTD SVG 20010904//EN"
 "http://www.w3.org/TR/2001/REC-SVG-20010904/DTD/svg10.dtd">
<svg version="1.0" xmlns="http://www.w3.org/2000/svg"
 width="310.000000pt" height="62.000000pt" viewBox="0 0 310.000000 62.000000"
 preserveAspectRatio="xMidYMid meet">

<g transform="translate(0.000000,62.000000) scale(0.100000,-0.100000)"
fill="green" stroke="none">
<path d="M110 564 c0 -3 9 -17 20 -31 11 -14 20 -33 20 -42 0 -9 -20 -109 -45
-221 -25 -112 -45 -206 -45 -207 0 -2 29 -3 64 -3 l63 0 18 81 c10 48 15 97
11 120 -5 29 -2 40 10 47 10 5 23 39 33 83 l17 74 53 3 c29 2 51 -1 48 -5 -3
-4 -10 -34 -17 -66 -11 -57 -13 -59 -66 -85 -30 -14 -54 -29 -54 -32 0 -11 69
-262 73 -266 10 -10 117 51 117 66 -1 8 -7 42 -15 75 -20 83 -19 91 15 105 34
14 31 8 65 164 19 90 22 122 14 132 -9 11 -54 14 -205 14 -107 0 -194 -3 -194
-6z"/>
<path d="M550 561 c0 -5 7 -14 16 -21 34 -29 33 -44 -15 -261 l-48 -214 150
-3 c82 -1 152 -1 154 2 5 5 32 116 33 134 0 10 -16 12 -62 10 -57 -3 -63 -5
-66 -25 -3 -18 -10 -23 -32 -23 l-28 0 12 52 c10 48 15 54 41 58 30 5 144 78
145 93 0 4 -34 7 -76 7 l-76 0 7 33 c12 61 16 67 41 67 19 0 24 -5 24 -25 0
-24 3 -25 59 -25 l59 0 16 69 c9 39 16 72 16 75 0 4 -83 6 -185 6 -102 0 -185
-4 -185 -9z"/>
<path d="M1015 558 c-3 -7 -27 -116 -55 -242 -39 -175 -48 -232 -39 -242 9
-11 48 -14 170 -14 88 0 159 3 159 8 1 4 7 33 15 65 l13 58 -54 36 c-30 20
-56 34 -58 32 -1 -2 -7 -24 -12 -49 -9 -45 -9 -45 -56 -48 l-46 -3 13 58 c7
32 23 102 35 156 l22 97 45 0 c44 0 44 -1 38 -28 -5 -26 -1 -31 46 -61 29 -18
55 -28 59 -24 4 4 15 47 25 95 25 122 30 118 -162 118 -114 0 -155 -3 -158
-12z"/>
<path d="M1571 548 c-5 -13 -52 -124 -105 -246 -53 -123 -96 -228 -96 -233 0
-5 29 -9 65 -9 l65 0 25 57 25 57 -30 37 -30 38 46 3 46 3 37 90 c36 89 36 90
39 50 2 -22 1 -68 -3 -102 l-7 -63 -55 0 -55 0 56 -63 c33 -36 56 -71 56 -84
0 -22 4 -23 70 -23 l70 0 0 255 0 255 -105 0 c-100 0 -106 -1 -114 -22z"/>
<path d="M1875 534 l28 -37 -42 -196 c-24 -108 -45 -206 -48 -218 -5 -22 -2
-23 61 -23 50 0 66 3 66 14 0 8 9 55 21 105 20 87 22 91 48 91 17 0 52 18 91
48 l64 47 -80 3 -80 3 10 49 c9 45 13 50 37 50 23 0 26 -3 21 -26 -5 -25 -4
-25 59 -22 l64 3 12 50 c6 28 12 60 12 73 l1 22 -186 0 -186 0 27 -36z"/>
<path d="M2250 561 c0 -5 7 -14 16 -21 34 -29 33 -44 -15 -261 l-48 -214 150
-3 c82 -1 152 -1 154 2 5 5 32 116 33 134 0 10 -16 12 -62 10 -57 -3 -63 -5
-66 -25 -3 -18 -10 -23 -32 -23 l-28 0 12 52 c10 48 15 54 41 58 30 5 144 78
145 93 0 4 -34 7 -76 7 l-76 0 7 33 c12 61 16 67 41 67 19 0 24 -5 24 -25 0
-24 3 -25 59 -25 l60 0 13 62 14 62 28 -37 c21 -28 36 -37 58 -37 34 0 36 21
-21 -236 l-38 -169 60 -3 c33 -2 62 -1 64 2 3 3 23 85 44 183 21 98 41 188 44
201 3 12 12 22 21 22 10 0 14 -8 12 -22 -3 -21 1 -23 59 -26 l61 -3 16 70 c9
38 16 72 16 75 0 4 -178 6 -395 6 -220 0 -395 -4 -395 -9z"/>
</g>
</svg>
