<?xml version="1.0" standalone="no"?>
<!DOCTYPE svg PUBLIC "-//W3C//DTD SVG 20010904//EN"
 "http://www.w3.org/TR/2001/REC-SVG-20010904/DTD/svg10.dtd">
<svg version="1.0" xmlns="http://www.w3.org/2000/svg"
 width="310.000000pt" height="97.000000pt" viewBox="0 0 310.000000 97.000000"
 preserveAspectRatio="xMidYMid meet">

<g transform="translate(0.000000,97.000000) scale(0.100000,-0.100000)"
fill="#004918" stroke="none">
<path d="M110 894 c0 -3 9 -17 20 -31 11 -14 20 -33 20 -42 0 -9 -20 -109 -45
-221 -25 -112 -45 -206 -45 -207 0 -2 29 -3 64 -3 l63 0 18 81 c10 48 15 97
11 120 -5 29 -2 40 10 47 10 5 23 39 33 83 l17 74 53 3 c29 2 51 -1 48 -5 -3
-4 -10 -34 -17 -66 -11 -57 -13 -59 -66 -85 -30 -14 -54 -29 -54 -32 0 -11 69
-262 73 -266 10 -10 117 51 117 66 -1 8 -7 42 -15 75 -20 83 -19 91 15 105 34
14 31 8 65 164 19 90 22 122 14 132 -9 11 -54 14 -205 14 -107 0 -194 -3 -194
-6z"/>
<path d="M550 891 c0 -5 7 -14 16 -21 34 -29 33 -44 -15 -261 l-48 -214 150
-3 c82 -1 152 -1 154 2 5 5 32 116 33 134 0 10 -16 12 -62 10 -57 -3 -63 -5
-66 -25 -3 -18 -10 -23 -32 -23 l-28 0 12 53 c10 47 15 53 41 57 30 5 144 78
145 93 0 4 -34 7 -76 7 l-76 0 7 33 c12 61 16 67 41 67 19 0 24 -5 24 -25 0
-24 3 -25 59 -25 l59 0 16 69 c9 39 16 72 16 75 0 4 -83 6 -185 6 -102 0 -185
-4 -185 -9z"/>
<path d="M1015 888 c-3 -7 -27 -116 -55 -242 -39 -175 -48 -232 -39 -242 9
-11 48 -14 170 -14 88 0 159 3 159 8 1 4 7 33 15 65 l13 58 -54 36 c-30 20
-56 34 -58 32 -1 -2 -7 -24 -12 -49 -9 -45 -9 -45 -56 -48 l-46 -3 13 58 c7
32 23 102 35 156 l22 97 45 0 c44 0 44 -1 38 -28 -5 -26 -1 -31 46 -61 29 -18
55 -28 59 -24 4 4 15 47 25 95 25 122 30 118 -162 118 -114 0 -155 -3 -158
-12z"/>
<path d="M1571 878 c-5 -13 -52 -124 -105 -246 -53 -123 -96 -228 -96 -233 0
-5 29 -9 65 -9 l65 0 25 57 25 57 -30 37 -30 38 46 3 46 3 37 90 c36 89 36 90
39 50 2 -22 1 -68 -3 -102 l-7 -63 -55 0 -55 0 56 -62 c33 -37 56 -72 56 -85
0 -22 4 -23 70 -23 l70 0 0 255 0 255 -105 0 c-100 0 -106 -1 -114 -22z"/>
<path d="M1875 864 l28 -37 -42 -196 c-24 -108 -45 -206 -48 -218 -5 -22 -2
-23 61 -23 50 0 66 3 66 14 0 8 9 55 21 105 20 87 22 91 48 91 17 0 52 18 91
48 l64 47 -80 3 -80 3 10 49 c9 45 13 50 37 50 23 0 26 -3 21 -26 -5 -25 -4
-25 59 -22 l64 3 12 50 c6 28 12 60 12 73 l1 22 -186 0 -186 0 27 -36z"/>
<path d="M2250 891 c0 -5 7 -14 16 -21 34 -29 33 -44 -15 -261 l-48 -214 150
-3 c82 -1 152 -1 154 2 5 5 32 116 33 134 0 10 -16 12 -62 10 -57 -3 -63 -5
-66 -25 -3 -18 -10 -23 -32 -23 l-28 0 12 53 c10 47 15 53 41 57 30 5 144 78
145 93 0 4 -34 7 -76 7 l-76 0 7 33 c12 61 16 67 41 67 19 0 24 -5 24 -25 0
-24 3 -25 59 -25 l60 0 13 62 14 62 28 -37 c21 -28 36 -37 58 -37 34 0 36 21
-21 -236 l-38 -169 60 -3 c33 -2 62 -1 64 2 3 3 23 85 44 183 21 98 41 188 44
201 3 12 12 22 21 22 10 0 14 -8 12 -22 -3 -21 1 -23 59 -26 l61 -3 16 70 c9
38 16 72 16 75 0 4 -178 6 -395 6 -220 0 -395 -4 -395 -9z"/>
<path d="M87 253 c-4 -3 -7 -46 -7 -95 0 -87 1 -89 23 -86 20 3 22 9 25 76 2
60 6 72 20 72 27 0 45 -17 39 -34 -4 -9 -13 -16 -22 -16 -9 0 -15 -9 -15 -21
0 -30 38 -79 61 -79 23 0 24 9 3 38 -15 21 -15 25 0 41 24 26 20 77 -6 95 -22
16 -108 22 -121 9z"/>
<path d="M260 165 l0 -96 73 3 c56 2 72 6 72 18 0 11 -13 16 -47 18 -40 3 -48
6 -48 23 0 16 7 19 40 19 33 0 40 3 40 20 0 17 -7 20 -40 20 -29 0 -40 4 -40
15 0 11 12 15 45 15 38 0 45 3 45 20 0 18 -7 20 -70 20 l-70 0 0 -95z"/>
<path d="M445 235 c-33 -32 -36 -114 -5 -145 31 -31 93 -27 119 6 12 15 21 37
21 50 0 21 -5 24 -40 24 -29 0 -40 -4 -40 -15 0 -8 7 -15 16 -15 9 0 14 -6 12
-12 -3 -7 -16 -13 -29 -13 -22 0 -24 5 -27 48 -4 54 13 69 52 47 13 -6 32 -10
42 -8 17 3 16 6 -8 31 -35 35 -80 36 -113 2z"/>
<path d="M600 240 c0 -11 5 -20 10 -20 6 0 10 -25 10 -55 0 -30 -4 -55 -10
-55 -5 0 -10 -9 -10 -20 0 -17 7 -20 45 -20 38 0 45 3 45 20 0 11 -4 20 -10
20 -5 0 -10 25 -10 55 0 30 5 55 10 55 6 0 10 9 10 20 0 17 -7 20 -45 20 -38
0 -45 -3 -45 -20z"/>
<path d="M732 244 c-45 -31 -20 -82 51 -99 34 -9 36 -35 3 -35 -14 0 -28 5
-31 10 -9 15 -45 12 -45 -4 0 -42 102 -62 134 -27 30 33 17 63 -36 89 -53 25
-62 42 -23 42 14 0 25 -4 25 -10 0 -5 9 -10 20 -10 12 0 20 7 20 16 0 40 -75
58 -118 28z"/>
<path d="M870 240 c0 -15 6 -20 25 -20 24 0 25 -2 25 -75 0 -73 1 -75 25 -75
24 0 25 2 25 75 0 74 0 75 26 75 19 0 25 5 22 18 -3 14 -16 18 -76 20 -67 3
-72 1 -72 -18z"/>
<path d="M1040 166 c0 -89 1 -96 20 -96 18 0 20 7 20 75 0 74 0 75 25 75 36 0
44 -28 14 -51 l-24 -18 21 -38 c15 -26 30 -39 48 -41 31 -4 32 2 6 36 l-20 25
20 22 c23 25 26 53 6 80 -10 13 -30 20 -75 23 l-61 4 0 -96z"/>
<path d="M1232 237 c-30 -32 -31 -118 -2 -147 24 -24 77 -26 108 -4 19 13 22
24 22 79 0 55 -3 66 -22 79 -33 23 -81 20 -106 -7z m83 -72 c0 -47 -2 -50 -27
-53 -27 -3 -28 -2 -28 46 0 55 5 64 35 60 17 -3 20 -10 20 -53z"/>
<path d="M1475 235 c-33 -32 -35 -110 -5 -143 40 -43 145 -16 127 33 -8 19
-21 19 -37 0 -7 -8 -23 -15 -36 -15 -22 0 -24 4 -24 50 0 56 17 73 51 52 45
-28 69 3 27 32 -33 23 -75 20 -103 -9z"/>
<path d="M1675 248 c-2 -7 -18 -50 -34 -95 l-30 -83 24 0 c16 0 25 6 25 15 0
21 76 21 84 0 5 -15 46 -22 45 -7 0 4 -15 45 -32 92 -26 68 -37 86 -55 88 -12
2 -24 -3 -27 -10z m35 -67 c0 -5 3 -16 6 -25 4 -12 0 -16 -16 -16 -16 0 -20 4
-16 16 3 9 6 20 6 25 0 5 5 9 10 9 6 0 10 -4 10 -9z"/>
<path d="M1805 247 c-3 -7 -5 -49 -3 -93 l3 -79 68 -3 c62 -3 67 -1 67 18 0
17 -6 20 -45 20 l-44 0 -3 72 c-2 60 -6 73 -21 76 -9 2 -19 -3 -22 -11z"/>
<path d="M1957 253 c-13 -12 -7 -33 8 -33 22 0 21 -98 -2 -115 -25 -19 -6 -35
43 -35 37 0 44 3 44 20 0 11 -7 20 -15 20 -21 0 -21 98 0 106 8 4 15 15 15 25
0 16 -7 19 -43 19 -24 0 -47 -3 -50 -7z"/>
<path d="M2080 165 c0 -87 2 -95 19 -95 16 0 20 8 23 38 3 35 5 37 41 40 53 5
51 32 -3 32 -33 0 -40 3 -40 19 0 17 8 20 48 23 34 2 47 7 47 18 0 12 -15 16
-67 18 l-68 3 0 -96z"/>
<path d="M2237 254 c-12 -13 -7 -34 8 -34 12 0 15 -13 15 -55 0 -42 -3 -55
-15 -55 -8 0 -15 -9 -15 -20 0 -17 7 -20 50 -20 43 0 50 3 50 20 0 11 -7 20
-15 20 -12 0 -15 13 -15 55 0 43 3 55 16 55 9 0 14 7 12 18 -2 12 -14 18 -43
20 -23 2 -44 0 -48 -4z"/>
<path d="M2370 238 c-28 -31 -28 -120 0 -148 35 -35 130 -17 130 25 0 23 -20
28 -39 11 -27 -25 -60 -20 -67 9 -14 57 19 101 57 77 45 -28 69 3 27 32 -33
23 -83 20 -108 -6z"/>
<path d="M2569 233 c-32 -84 -59 -156 -59 -159 0 -12 42 -2 46 11 8 21 84 21
84 0 0 -9 9 -15 25 -15 l25 0 -34 93 c-26 73 -37 93 -55 95 -15 3 -24 -4 -32
-25z m41 -52 c0 -5 3 -16 6 -25 4 -12 0 -16 -16 -16 -16 0 -20 4 -16 16 3 9 6
20 6 25 0 5 5 9 10 9 6 0 10 -4 10 -9z"/>
<path d="M2705 248 c-3 -8 -5 -50 -3 -94 l3 -79 59 0 c71 1 86 16 86 90 0 65
-20 86 -90 93 -38 3 -51 1 -55 -10z m93 -40 c13 -13 16 -56 6 -82 -3 -9 -17
-16 -30 -16 -22 0 -24 4 -24 55 0 46 3 55 18 55 10 0 23 -5 30 -12z"/>
<path d="M2895 235 c-19 -18 -25 -35 -25 -68 0 -62 29 -97 80 -97 51 0 80 35
80 97 0 55 -33 93 -80 93 -19 0 -40 -9 -55 -25z m80 -70 c0 -47 -2 -50 -25
-50 -22 0 -25 5 -28 39 -4 52 3 68 30 64 20 -3 23 -9 23 -53z"/>
</g>
</svg>
