<?xml version="1.0" standalone="no"?>
<svg xmlns:xlink="http://www.w3.org/1999/xlink" id="wave" style="transform:rotate(0deg); transition: 0.3s" viewBox="0 0 1440 490" version="1.1" xmlns="http://www.w3.org/2000/svg"><defs><linearGradient id="sw-gradient-0" x1="0" x2="0" y1="1" y2="0"><stop stop-color="rgba(40, 146, 40, 1)" offset="0%"/><stop stop-color="rgba(40, 146, 40, 1)" offset="100%"/></linearGradient></defs><path style="transform:translate(0, 0px); opacity:1" fill="url(#sw-gradient-0)" d="M0,245L26.7,220.5C53.3,196,107,147,160,114.3C213.3,82,267,65,320,65.3C373.3,65,427,82,480,114.3C533.3,147,587,196,640,196C693.3,196,747,147,800,130.7C853.3,114,907,131,960,179.7C1013.3,229,1067,310,1120,310.3C1173.3,310,1227,229,1280,220.5C1333.3,212,1387,278,1440,269.5C1493.3,261,1547,180,1600,147C1653.3,114,1707,131,1760,171.5C1813.3,212,1867,278,1920,294C1973.3,310,2027,278,2080,269.5C2133.3,261,2187,278,2240,236.8C2293.3,196,2347,98,2400,49C2453.3,0,2507,0,2560,57.2C2613.3,114,2667,229,2720,245C2773.3,261,2827,180,2880,196C2933.3,212,2987,327,3040,383.8C3093.3,441,3147,441,3200,416.5C3253.3,392,3307,343,3360,318.5C3413.3,294,3467,294,3520,310.3C3573.3,327,3627,359,3680,326.7C3733.3,294,3787,196,3813,147L3840,98L3840,490L3813.3,490C3786.7,490,3733,490,3680,490C3626.7,490,3573,490,3520,490C3466.7,490,3413,490,3360,490C3306.7,490,3253,490,3200,490C3146.7,490,3093,490,3040,490C2986.7,490,2933,490,2880,490C2826.7,490,2773,490,2720,490C2666.7,490,2613,490,2560,490C2506.7,490,2453,490,2400,490C2346.7,490,2293,490,2240,490C2186.7,490,2133,490,2080,490C2026.7,490,1973,490,1920,490C1866.7,490,1813,490,1760,490C1706.7,490,1653,490,1600,490C1546.7,490,1493,490,1440,490C1386.7,490,1333,490,1280,490C1226.7,490,1173,490,1120,490C1066.7,490,1013,490,960,490C906.7,490,853,490,800,490C746.7,490,693,490,640,490C586.7,490,533,490,480,490C426.7,490,373,490,320,490C266.7,490,213,490,160,490C106.7,490,53,490,27,490L0,490Z"/></svg>